<svg xmlns="http://www.w3.org/2000/svg" width="33" height="33" viewBox="0 0 33 33"><path d="M16.5,0A16.5,16.5,0,1,0,33,16.5,16.5,16.5,0,0,0,16.5,0ZM27.327,7.987a13.716,13.716,0,0,1,2.945,8.127,29.275,29.275,0,0,0-9.654-.231q-.524-1.2-1.079-2.337A19.913,19.913,0,0,0,27.327,7.987Zm-1.9-1.972A17.418,17.418,0,0,1,18.287,11.1a70.674,70.674,0,0,0-5.036-7.992A13.728,13.728,0,0,1,25.429,6.015ZM10.576,4.059a67.6,67.6,0,0,1,5.1,7.916A48.74,48.74,0,0,1,3.089,13.337,13.833,13.833,0,0,1,10.576,4.059ZM2.718,16.5l.011-.446H2.8a50.709,50.709,0,0,0,14.158-1.61q.489.995.96,2.044A21.488,21.488,0,0,0,6.128,25.56,13.717,13.717,0,0,1,2.718,16.5ZM8.137,27.444c2.327-3.5,5.569-6.971,10.845-8.427a47.082,47.082,0,0,1,2.77,10.224,13.734,13.734,0,0,1-13.615-1.8Zm16.149.423a50.231,50.231,0,0,0-2.6-9.386,27.319,27.319,0,0,1,8.4.359A13.811,13.811,0,0,1,24.286,27.866Z" transform="translate(0 -0.001)" fill="#ea4c89"/></svg>