<svg xmlns="http://www.w3.org/2000/svg" width="170.789" height="41.727" viewBox="0 0 170.789 41.727"><path d="M168.986,28.9c-.53-.383-.949-.438-1.3.292-5.95,12.867-15.97,6.443-14.966,7.008,2.227-1.022,8.067-5.694,7.191-12.173-.529-3.96-3.924-5.713-7.538-5.074-6.3,1.1-8.6,7.884-7.428,13.889a11.616,11.616,0,0,0,.949,2.719c-7.1,5.786-9.929-5.165-10.257-6.479-.018-.073,5.494-4.654,7.027-15.586C144.274,2.049,140.623-.05,136.882.023,129.965.15,128.1,14.587,130.6,26.614a7.457,7.457,0,0,1-2.756.657c-1.132-3.559-5.968-6.68-7.228-5.475-3.157,3.011.767,8.888,3.541,9.344-1.661,10.239-12.064,7.7-10.13-5.129,3.377-6.278,5.968-15.641,5.494-21.281A4.757,4.757,0,0,0,114.543.187c-6.424.256-7.118,14.692-6.37,24.949a5.338,5.338,0,0,1-3.03,1.989c-.62-3.449-6.187-6.935-7.5-5.256-2.446,3.121,1.807,8.687,3.814,9.071-1.661,10.239-12.064,7.7-10.129-5.129,3.395-6.278,5.968-15.623,5.512-21.262A4.756,4.756,0,0,0,91.857,0C85.432.26,84.739,14.7,85.488,24.953a5.223,5.223,0,0,1-3.14,2.026c-.091-4.49-5.676-6.534-7.026-5.11-2.391,2.555.547,7.793,3.267,9.071-1.661,10.239-12.064,7.7-10.129-5.129,3.377-6.278,5.968-15.641,5.494-21.281A4.725,4.725,0,0,0,68.988,0C62.564.26,62.053,15.426,62.8,25.683c-2.117,9.071-9.217,20.386-8.286-2.3.091-1.588.183-2.19-.6-2.792-.6-.456-1.953-.237-2.683-.219-.894.037-1.131.566-1.314,1.351a34.5,34.5,0,0,0-.62,6.753,11.955,11.955,0,0,1-.639,3.6c-.493,1.734-3.267,4.891-4.8,4.362-2.117-.73-1.424-6.7-1.022-10.8.329-3.249-.73-4.69-3.431-5.22a32.6,32.6,0,0,1-4.2-.8c-1.57-.493-1.916-3.449-5.238-2.464-1.825.548-.657,4.4-1.1,7.264-2.154,14.071-6.625,14.455-8.706,7.629C29.512,9.112,22.85.077,18.963.077c-4.052,0-8.687,2.792-6.735,20.678a6.355,6.355,0,0,0-2.3-.42C4.033,20.318,0,25.1,0,30.994S4.033,41.671,9.947,41.671a9.336,9.336,0,0,0,7.793-4.033c1.2,1.734,2.683,4.07,5.384,3.96,8.03-.31,10.367-16.791,10.64-17.722.858.128,1.679.383,2.464.511,1.314.2,1.424.73,1.387,2.044-.347,11.206,1.716,15.13,6.406,15.13,2.61,0,4.946-2.573,6.552-4.4,1.2,2.482,3.1,4.325,5.676,4.4,6.205.146,8.6-9.746,8.377-8.45-.164,1.022,2.007,8.377,8.414,8.414,7.921.037,9.4-8.669,9.563-10.129.036-.256.018-.292,0,0v.091a7.548,7.548,0,0,0,3.814-1.807s2.026,11.991,9.491,11.863c7.757-.146,9.235-8.012,9.417-9.545.036-.329.018-.365,0,0v.037c2.993-1.1,3.778-2.172,3.778-2.172s1.606,11.754,9.49,11.863c7.027.091,9.636-7.118,9.655-10.129a11.1,11.1,0,0,0,3.322-.748s2.573,10.275,9.764,10.8c3.377.255,5.913-1.9,7.355-2.884,3.394,2.756,14.692,6.26,21.828-5.84C171.541,31.214,169.369,29.151,168.986,28.9ZM9.655,37.674C6.205,37.674,4,34.48,4,31.049s2.026-6.625,5.475-6.625A4.626,4.626,0,0,1,13.1,25.647c.219.858.84,2.847,1.15,3.76.4,1.2.894,2.245,1.369,3.358A6.1,6.1,0,0,1,9.655,37.674Zm8.4-11.936c-.146-.237-.109-.091-.274-.31a33.547,33.547,0,0,1-1.989-9.91C15.623,10.59,16.444,4.8,18.871,4.8,20.514,4.8,22.266,16.522,18.05,25.738ZM66.616,20.61c-.383-2.92-.4-15.97,2.72-15.6C71.069,5.7,68.24,18,66.616,20.61Zm22.868,0c-.383-2.92-.4-15.97,2.72-15.6C93.938,5.7,91.109,18,89.484,20.61Zm22.686.183c-.383-2.92-.4-15.97,2.719-15.6C116.623,5.863,113.795,18.182,112.17,20.792ZM137.211,4.22c2.865-.292,2.738,12.21-2.993,20.094C133.469,21.467,132.338,5.206,137.211,4.22Zm12.046,26.92c-.913-4.654,1.46-7.7,3.906-8.03a2.163,2.163,0,0,1,2.336,1.46c.4,1.953-.055,4.855-5.548,8.523A8.67,8.67,0,0,1,149.256,31.14ZM52.179,16.8a3.541,3.541,0,1,0-3.541-3.541A3.544,3.544,0,0,0,52.179,16.8Z" fill="#ea4c89" fill-rule="evenodd"/></svg>