<svg xmlns="http://www.w3.org/2000/svg" width="25.847" height="27.591" viewBox="0 0 25.847 27.591"><g transform="translate(0.709 1)"><path d="M.3,3.2h0Q.291,3.056.291,2.908a2.908,2.908,0,1,1,5.816,0q0,.147-.014.291h0A2.908,2.908,0,0,1,.3,3.2Z" fill="none" stroke="#fff" stroke-width="2"/><path d="M9.611,3.2h0Q9.6,3.056,9.6,2.908a2.908,2.908,0,1,1,5.816,0q0,.147-.014.291h0a2.908,2.908,0,0,1-5.787,0Z" transform="translate(0 9.887)" fill="none" stroke="#fff" stroke-width="2"/><path d="M18.335,3.2h0q-.014-.143-.014-.291a2.908,2.908,0,1,1,5.816,0q0,.147-.014.291h0a2.908,2.908,0,0,1-5.787,0Z" transform="translate(0 19.775)" fill="none" stroke="#fff" stroke-width="2"/></g></svg>