<svg xmlns="http://www.w3.org/2000/svg" width="27" height="24.021" viewBox="0 0 27 24.021"><path d="M13.5,24.021a1.583,1.583,0,0,1-1.044-.392c-1.091-.954-2.142-1.85-3.07-2.641l0,0a57.1,57.1,0,0,1-6.7-6.292A10.05,10.05,0,0,1,0,8.114,8.439,8.439,0,0,1,2.142,2.351,7.26,7.26,0,0,1,7.543,0a6.791,6.791,0,0,1,4.242,1.464A8.679,8.679,0,0,1,13.5,3.255a8.68,8.68,0,0,1,1.715-1.791A6.791,6.791,0,0,1,19.458,0a7.261,7.261,0,0,1,5.4,2.351A8.439,8.439,0,0,1,27,8.114a10.048,10.048,0,0,1-2.678,6.578,57.091,57.091,0,0,1-6.7,6.292c-.929.792-1.983,1.69-3.076,2.646a1.584,1.584,0,0,1-1.044.392ZM7.543,1.582A5.7,5.7,0,0,0,3.3,3.423,6.865,6.865,0,0,0,1.581,8.114,8.456,8.456,0,0,0,3.9,13.683a56.188,56.188,0,0,0,6.511,6.1l0,0c.931.794,1.987,1.693,3.086,2.654,1.105-.963,2.163-1.864,3.1-2.659a56.2,56.2,0,0,0,6.511-6.1,8.456,8.456,0,0,0,2.314-5.569A6.865,6.865,0,0,0,23.7,3.423a5.7,5.7,0,0,0-4.238-1.841,5.246,5.246,0,0,0-3.275,1.134,7.675,7.675,0,0,0-1.825,2.112,1,1,0,0,1-1.715,0,7.668,7.668,0,0,0-1.825-2.112A5.245,5.245,0,0,0,7.543,1.582Zm0,0" transform="translate(0 0)" fill="#ea4c89"/></svg>