<svg xmlns="http://www.w3.org/2000/svg" width="27.249" height="23.948" viewBox="0 0 27.249 23.948"><g transform="translate(0 0)"><g transform="translate(0 16.442)"><path d="M26.555,339.95a.694.694,0,0,0-.694.694v2.651a2.778,2.778,0,0,1-2.775,2.775H4.162a2.778,2.778,0,0,1-2.775-2.775v-2.651a.694.694,0,0,0-1.387,0v2.651a4.167,4.167,0,0,0,4.162,4.162H23.087a4.167,4.167,0,0,0,4.162-4.162v-2.651A.694.694,0,0,0,26.555,339.95Z" transform="translate(0 -339.95)" fill="#ea4c89"/></g><g transform="translate(4.211 19.175)"><path d="M97.265,391.305H79.827a.694.694,0,1,0,0,1.387H97.265a.694.694,0,0,0,0-1.387Z" transform="translate(-79.133 -391.305)" fill="#ea4c89"/></g><g transform="translate(6.427)"><path d="M134.929,36.641l-5.81-5.191a1.733,1.733,0,0,0-2.311,0L121,36.641a.694.694,0,1,0,.924,1.035l5.348-4.777V46.342a.694.694,0,0,0,1.387,0V32.9L134,37.676a.694.694,0,1,0,.924-1.035Z" transform="translate(-120.766 -31.009)" fill="#ea4c89"/></g></g></svg>